<?xml version="1.0" encoding="iso-8859-1"?>
<!-- Uploaded to: SVG Repo, www.svgrepo.com, Generator: SVG Repo Mixer Tools -->
<svg padding="15px" fill="#000000" height="800px" width="800px" version="1.1" id="Layer_1" xmlns="http://www.w3.org/2000/svg" xmlns:xlink="http://www.w3.org/1999/xlink" 
	 viewBox="0 0 512 512" xml:space="preserve">
<g>
	<g>
		<path d="M370.386,307.791c-12.014-4.97-19.778-16.58-19.778-29.578c0-51.231-41.333-100.174-94.609-100.174
			c-53.27,0-94.609,48.934-94.609,100.182c0.001,12.998-7.762,24.607-19.778,29.577c-35.316,14.609-58.135,48.869-58.135,87.285
			c0,68.129,70.274,114.01,132.588,86.673c25.379-11.135,54.489-11.135,79.869,0c62.405,27.38,132.587-18.628,132.587-86.673
			C428.522,356.662,405.702,322.398,370.386,307.791z M309.349,451.176c-16.954-7.438-35.149-11.155-53.349-11.155
			c-18.196,0-36.399,3.72-53.348,11.155c-40.266,17.662-85.782-11.975-85.782-56.094c0-24.854,14.722-47.005,37.507-56.428
			c24.547-10.154,40.408-33.878,40.406-60.442c0-35.576,28.606-66.783,61.217-66.783c32.611,0,61.217,31.206,61.217,66.783
			c0,26.559,15.86,50.282,40.406,60.435c22.435,9.279,37.507,31.959,37.507,56.435C395.13,439.223,349.589,468.828,309.349,451.176z
			"/>
	</g>
</g>
<g>
	<g>
		<path d="M178.087,22.213c-36.151,0-55.652,63.202-55.652,89.043c0,30.687,24.966,55.652,55.652,55.652
			c30.687,0,55.652-24.966,55.652-55.652C233.739,85.415,214.237,22.213,178.087,22.213z M178.087,133.517
			c-12.275,0-22.261-9.986-22.261-22.261c0-6.905,2.926-20.857,8.519-34.158c5.582-13.273,11.217-19.632,13.742-21.236
			c2.524,1.603,8.16,7.962,13.742,21.236c5.593,13.301,8.519,27.253,8.519,34.158C200.348,123.531,190.362,133.517,178.087,133.517z
			"/>
	</g>
</g>
<g>
	<g>
		<path d="M333.913,22.213c-36.151,0-55.652,63.202-55.652,89.043c0,30.687,24.966,55.652,55.652,55.652
			c30.687,0,55.652-24.966,55.652-55.652C389.565,85.415,370.064,22.213,333.913,22.213z M333.913,133.517
			c-12.275,0-22.261-9.986-22.261-22.261c0-6.905,2.926-20.856,8.519-34.157c5.582-13.274,11.217-19.633,13.742-21.237
			c2.524,1.604,8.16,7.963,13.742,21.236c5.593,13.301,8.519,27.253,8.519,34.158C356.174,123.531,346.188,133.517,333.913,133.517z
			"/>
	</g>
</g>
<g>
	<g>
		<path d="M55.652,155.778C19.502,155.778,0,218.98,0,244.821c0,30.687,24.966,55.652,55.652,55.652
			c30.687,0,55.652-24.966,55.652-55.652C111.304,218.98,91.803,155.778,55.652,155.778z M55.652,267.082
			c-12.275,0-22.261-9.986-22.261-22.261c0-6.905,2.926-20.856,8.519-34.158c5.582-13.273,11.217-19.632,13.742-21.236
			c2.524,1.603,8.16,7.962,13.742,21.236c5.593,13.302,8.519,27.253,8.519,34.158C77.913,257.096,67.927,267.082,55.652,267.082z"/>
	</g>
</g>
<g>
	<g>
		<path d="M456.348,155.778c-36.151,0-55.652,63.202-55.652,89.043c0,30.687,24.966,55.652,55.652,55.652
			c30.687,0,55.652-24.966,55.652-55.652C512,218.98,492.498,155.778,456.348,155.778z M456.348,267.082
			c-12.275,0-22.261-9.986-22.261-22.261c0-6.905,2.926-20.856,8.519-34.157c5.582-13.274,11.217-19.633,13.742-21.236
			c2.524,1.603,8.16,7.962,13.742,21.236c5.593,13.301,8.519,27.252,8.519,34.157C478.609,257.096,468.622,267.082,456.348,267.082z
			"/>
	</g>
</g>
</svg>